<svg width="224" height="104" viewBox="0 0 224 104" fill="none" xmlns="http://www.w3.org/2000/svg">
<path d="M53.2127 102.647H83.6896H85.1762V65.4878H108.963V102.647H115.653V65.4878H139.44V102.647H170.66V30.4319H178.094L111.936 1.68608L45.7793 30.4319H53.2127V102.647Z" stroke="black" stroke-width="2"/>
<path d="M47.4587 102.647V34.6386H1V98.7909V102.647H11.4067H16.6101V80.9124L24.4152 75.3034L31.4769 80.9124V102.647H47.4587Z" stroke="black" stroke-width="2"/>
<path d="M222.5 102.647V34.6386H176.042V98.7909V102.647H186.448H191.652V80.9124L199.457 75.3034L206.518 80.9124V102.647H222.5Z" stroke="black" stroke-width="2"/>
<rect x="19.8403" y="62.2811" width="9.15008" height="5.7123" stroke="black" stroke-width="2"/>
<rect x="194.882" y="62.2811" width="9.15008" height="5.7123" stroke="black" stroke-width="2"/>
<path d="M97.0698 65.4878V102.998" stroke="black" stroke-width="2"/>
<path d="M127.547 65.4878V102.998" stroke="black" stroke-width="2"/>
<path d="M85.1763 84.418H108.963" stroke="black" stroke-width="2"/>
<path d="M115.652 84.418H139.439" stroke="black" stroke-width="2"/>
</svg>
